<svg width="156" height="46" viewBox="0 0 156 46" fill="none" xmlns="http://www.w3.org/2000/svg">
<g clip-path="url(#clip0_120_3379)">
<path d="M37.451 17.3188H32.1689V13.918H46.9032V17.3188H41.6211V32.0624H37.451V17.3188Z" fill="white"/>
<path d="M49.3652 13.918H61.6173V17.2009H53.3367V21.1325H60.5251V24.4351H53.3367V28.8188H61.6768V32.1017H49.3652V13.918Z" fill="white"/>
<path d="M75.2796 25.1034L79.966 32.0624H75.4584L71.4869 25.6735H68.9451V32.0624H64.7949V13.918H71.467C76.0342 13.918 78.8341 16.0214 78.8341 19.8154C78.8781 20.9548 78.5583 22.0789 77.9202 23.0282C77.2822 23.9774 76.3583 24.7035 75.2796 25.1034ZM71.467 17.1026H68.9253V22.4693H71.467C73.5719 22.4693 74.6442 21.4667 74.6442 19.7957C74.6442 18.1248 73.5719 17.1026 71.467 17.1026Z" fill="white"/>
<path d="M98.8704 32.0624H94.4223L93.211 28.3274H86.5389L85.3673 32.0624H80.8994L87.2935 13.918H92.4763L98.8704 32.0624ZM87.5914 25.0641H92.1983L89.8948 17.8103L87.5914 25.0641Z" fill="white"/>
<path d="M101.293 13.918H105.463V28.6812H113.605V32.0624H101.293V13.918Z" fill="white"/>
<path d="M120.316 13.918V32.0624H116.106V13.918H120.316Z" fill="white"/>
<path d="M124.288 13.918H128.359L135.587 25.5359V13.918H139.558V32.0624H135.587L128.319 20.5034V32.1214H124.348L124.288 13.918Z" fill="white"/>
<path d="M143.49 13.918H155.742V17.2009H147.66V21.1325H154.829V24.4351H147.66V28.8188H155.981V32.1017H143.49V13.918Z" fill="white"/>
<path d="M14.3966 35.3846V25.9094H11.2393V35.2666L6.9501 35.3846L0 23L6.9501 10.5957H11.2393V20.0906H14.3966V10.5957H18.8248L25.7749 23L18.8248 35.3846H14.3966Z" fill="white"/>
<path d="M16.7994 39.0017L12.8875 45.9803L8.97559 39.0017H16.7994Z" fill="white"/>
<path d="M8.97559 6.99829L12.8875 0L16.7994 6.99829H8.97559Z" fill="white"/>
</g>
<defs>
<clipPath id="clip0_120_3379">
<rect width="156" height="46" fill="white"/>
</clipPath>
</defs>
</svg>
