<svg width="666" height="197" viewBox="0 0 666 197" fill="none" xmlns="http://www.w3.org/2000/svg">
<g clip-path="url(#clip0_120_3089)">
<path d="M159.886 73.9908H137.336V59.4614H200.24V73.9908H177.689V136.979H159.886V73.9908Z" fill="white"/>
<path d="M210.751 59.4614H263.058V73.4869H227.706V90.2839H258.395V104.393H227.706V123.122H263.312V137.147H210.751V59.4614Z" fill="white"/>
<path d="M321.388 107.249L341.395 136.979H322.151L305.195 109.684H294.344V136.979H276.626V59.4614H305.111C324.609 59.4614 336.563 68.4478 336.563 84.6569C336.75 89.5246 335.385 94.3272 332.661 98.3827C329.937 102.438 325.993 105.54 321.388 107.249ZM305.111 73.067H294.259V95.9948H305.111C314.097 95.9948 318.675 91.7116 318.675 84.5729C318.675 77.4342 314.097 73.067 305.111 73.067Z" fill="white"/>
<path d="M422.101 136.979H403.111L397.94 121.022H369.455L364.453 136.979H345.379L372.677 59.4614H394.803L422.101 136.979ZM373.948 107.081H393.616L383.782 76.0904L373.948 107.081Z" fill="white"/>
<path d="M432.442 59.4614H450.245V122.534H485.004V136.979H432.442V59.4614Z" fill="white"/>
<path d="M513.659 59.4614V136.979H495.687V59.4614H513.659Z" fill="white"/>
<path d="M530.612 59.4614H547.991L578.85 109.096V59.4614H595.805V136.979H578.85L547.822 87.5964V137.231H530.867L530.612 59.4614Z" fill="white"/>
<path d="M612.59 59.4614H664.897V73.4869H630.393V90.2839H660.997V104.393H630.393V123.122H665.914V137.147H612.59V59.4614Z" fill="white"/>
<path d="M61.4626 151.173V110.692H47.9832V150.669L29.6716 151.173L0 98.2624L29.6716 45.2679H47.9832V85.8326H61.4626V45.2679H80.3676L110.039 98.2624L80.3676 151.173H61.4626Z" fill="white"/>
<path d="M71.7211 166.626L55.0202 196.441L38.3193 166.626H71.7211Z" fill="white"/>
<path d="M38.3193 29.8986L55.0202 0L71.7211 29.8986H38.3193Z" fill="white"/>
</g>
<defs>
<clipPath id="clip0_120_3089">
<rect width="666" height="196.525" fill="white"/>
</clipPath>
</defs>
</svg>
